<svg xmlns="http://www.w3.org/2000/svg" viewBox="0 0 64 64"><defs><style>.cls-1{fill:#f7f5ca;}</style></defs><g id="Layer_2" data-name="Layer 2"><g id="Layer_1-2" data-name="Layer 1"><path class="cls-1" d="M31.94,0A31,31,0,0,1,54.69,9.26,31,31,0,0,1,64,32q0,13.49-9.15,22.46A31.6,31.6,0,0,1,31.94,64,30.94,30.94,0,0,1,9.43,54.57,30.79,30.79,0,0,1,0,32,31.34,31.34,0,0,1,9.43,9.26,30.64,30.64,0,0,1,31.94,0Zm.12,5.77A24.9,24.9,0,0,0,13.6,13.43,25.73,25.73,0,0,0,5.77,32a25.14,25.14,0,0,0,7.77,18.4,25.28,25.28,0,0,0,18.52,7.77,25.66,25.66,0,0,0,18.62-7.83A24.37,24.37,0,0,0,58.23,32a25.29,25.29,0,0,0-7.66-18.57A25.2,25.2,0,0,0,32.06,5.77Zm8.57,18.29V37.14H37V52.68H27V37.14H23.37V24.06A2,2,0,0,1,25.43,22H38.57a2,2,0,0,1,1.43.6A2,2,0,0,1,40.63,24.06ZM27.54,15.83q0-4.51,4.46-4.51t4.46,4.51q0,4.46-4.46,4.46T27.54,15.83Z"/></g></g></svg>