<svg xmlns="http://www.w3.org/2000/svg" viewBox="0 0 64 64"><defs><style>.cls-1{fill:#f7f5ca;}</style></defs><g id="Layer_2" data-name="Layer 2"><g id="Layer_1-2" data-name="Layer 1"><path class="cls-1" d="M31.94,0A31.23,31.23,0,0,1,54.8,9.37a30.87,30.87,0,0,1,6.86,10.32A32.56,32.56,0,0,1,64,32a32.64,32.64,0,0,1-2.31,12.31,29.53,29.53,0,0,1-6.83,10.15,33.09,33.09,0,0,1-10.63,7.08A31.84,31.84,0,0,1,31.94,64,31.14,31.14,0,0,1,19.8,61.57a32.15,32.15,0,0,1-10.4-7,31.73,31.73,0,0,1-7-10.37,31.95,31.95,0,0,1,0-24.37A32.09,32.09,0,0,1,9.49,9.31,30.26,30.26,0,0,1,31.94,0Zm.12,5.77A24.77,24.77,0,0,0,13.6,13.43,27.37,27.37,0,0,0,7.8,22a25.35,25.35,0,0,0,0,19.88A27.12,27.12,0,0,0,22.11,56.15a26,26,0,0,0,19.92,0,27.74,27.74,0,0,0,8.71-5.77A24.6,24.6,0,0,0,58.23,32a26.24,26.24,0,0,0-1.95-10.06,25.6,25.6,0,0,0-5.65-8.45A25.32,25.32,0,0,0,32.06,5.77Zm-.4,20.92-4.29,2.23a4.39,4.39,0,0,0-1.69-2,3.75,3.75,0,0,0-1.85-.57q-4.29,0-4.29,5.65a7.05,7.05,0,0,0,1.08,4.12,3.7,3.7,0,0,0,3.21,1.54,4,4,0,0,0,3.94-2.74l3.94,2a9.4,9.4,0,0,1-8.4,5,9.35,9.35,0,0,1-6.91-2.62A9.91,9.91,0,0,1,13.77,32a9.85,9.85,0,0,1,2.66-7.25,9.05,9.05,0,0,1,6.71-2.69Q29.08,22.06,31.66,26.69Zm18.45,0-4.23,2.23a4.38,4.38,0,0,0-1.68-2,3.9,3.9,0,0,0-1.92-.57Q38,26.35,38,32a7.05,7.05,0,0,0,1.08,4.12,3.69,3.69,0,0,0,3.2,1.54,4,4,0,0,0,3.94-2.74l4,2a9.71,9.71,0,0,1-3.54,3.68,9.16,9.16,0,0,1-4.85,1.34,9.31,9.31,0,0,1-6.94-2.62A9.94,9.94,0,0,1,32.28,32a9.85,9.85,0,0,1,2.66-7.25,9.06,9.06,0,0,1,6.72-2.69Q47.6,22.06,50.11,26.69Z"/></g></g></svg>