<svg xmlns="http://www.w3.org/2000/svg" viewBox="0 0 128 128"><defs><style>.cls-1{fill:#f7f5ca;}.cls-2{fill:none;}</style></defs><g id="Layer_2" data-name="Layer 2"><g id="Layer_1-2" data-name="Layer 1"><path class="cls-1" d="M38.06,20a52,52,0,0,1,52.12,0A50.22,50.22,0,0,1,109,38.79a51.37,51.37,0,0,1,7,26.06,50.41,50.41,0,0,1-9.89,30.4,49.58,49.58,0,0,1-25.58,18.58,2.71,2.71,0,0,1-3.62-2.41V97.18c0-4.34-1.21-7.48-3.62-9.65a51.22,51.22,0,0,0,7-1.21,26.7,26.7,0,0,0,6.27-2.65,17.24,17.24,0,0,0,5.55-4.59,20.88,20.88,0,0,0,3.62-7A32,32,0,0,0,97.18,62,19.3,19.3,0,0,0,91.87,48.2c1.69-4.1,1.45-8.69-.48-13.76-1.21-.48-3.14-.24-5.55.73s-4.35,1.93-6.28,2.89l-2.65,1.69a46.19,46.19,0,0,0-13-1.69,48.58,48.58,0,0,0-13,1.69c-.72-.48-1.69-1.2-2.9-1.93a40,40,0,0,0-5.55-2.65c-2.65-1-4.58-1.21-5.79-1-1.93,5.07-2.17,9.65-.48,13.76a21.23,21.23,0,0,0-5.07,14,32.29,32.29,0,0,0,1.45,10.14,21.07,21.07,0,0,0,3.62,7,19.83,19.83,0,0,0,5.31,4.59,26.7,26.7,0,0,0,6.27,2.65,45.43,45.43,0,0,0,7,1.21,12,12,0,0,0-3.38,7,11.92,11.92,0,0,1-3.14,1,18.36,18.36,0,0,1-3.86.24A7.83,7.83,0,0,1,40,94.29a12.1,12.1,0,0,1-3.62-4.11A12.17,12.17,0,0,0,33,86.56a8.76,8.76,0,0,0-3.38-1.68l-1.44-.25c-1,0-1.69,0-1.93.25s-.49.48-.24.72.24.72.72,1a3.15,3.15,0,0,0,1,.73l.49.24a7.27,7.27,0,0,1,2.89,2.65,19.3,19.3,0,0,1,2.17,3.38L34,95a8.5,8.5,0,0,0,2.89,4.1A10.93,10.93,0,0,0,41.44,101a33.33,33.33,0,0,0,4.58.49,15.41,15.41,0,0,0,3.62-.25l1.45-.24v9.65a2.22,2.22,0,0,1-1,1.94,3,3,0,0,1-2.66.48A51.63,51.63,0,0,1,21.89,94.53,48.92,48.92,0,0,1,12,64.12a51.4,51.4,0,0,1,7-26.06A57,57,0,0,1,38.06,20ZM31.79,87.29c.24-.24,0-.48-.49-.73s-.72,0-1,.25,0,.48.48.72S31.79,87.77,31.79,87.29ZM34,89.7c.24-.24.24-.48-.24-1s-.73-.49-1-.24-.24.48.24,1A.6.6,0,0,0,34,89.7Zm1.93,2.9c.48-.24.48-.73,0-1.21a.89.89,0,0,0-1.21-.48c-.48.24-.48.72,0,1.2S35.65,92.84,35.89,92.6Zm2.89,2.89c.25-.24.25-.72-.24-1.2s-1-.73-1.44-.25c-.49.25-.25.73.24,1.21C38.06,95.73,38.54,95.73,38.78,95.49Zm3.87,1.69c.24-.48-.25-1-1-1-.72-.24-1.21,0-1.21.48-.24.48,0,.72,1,1A.88.88,0,0,0,42.65,97.18Zm4.34.24c0-.48-.48-.72-1.21-.72s-1,.24-1,.72.48.73,1.2.73C46.51,98.15,47,97.91,47,97.42Zm3.86-.72c0-.48-.48-.72-1.21-.72-.72.24-1,.48-1,1s.48.72,1.2.48C50.61,97.66,50.85,97.18,50.85,96.7Z"/><rect class="cls-2" width="128" height="128"/></g></g></svg>