<svg xmlns="http://www.w3.org/2000/svg" viewBox="0 0 128 128"><defs><style>.cls-1{fill:none;}.cls-2{fill:#f7f5ca;}</style></defs><g id="Layer_2" data-name="Layer 2"><g id="Layer_1-2" data-name="Layer 1"><rect class="cls-1" width="128" height="128"/><path class="cls-2" d="M114.91,62.8c0,10.31,0,17.26-.23,21.1-.48,9.34-3.1,16.53-8.33,21.57s-12.13,7.91-21.41,8.39c-3.81.24-11,.24-20.94.24-10.23,0-17.13,0-20.94-.24-9.28-.48-16.41-3.12-21.41-8.39-5-5-7.85-12.23-8.33-21.57-.23-3.84-.23-11-.23-21.1s0-17.26.23-21.09c.48-9.35,3.1-16.54,8.33-21.58,5-5,12.13-7.91,21.41-8.38,3.81-.24,10.95-.24,20.94-.24,10.23,0,17.13,0,20.94.24,9.28.47,16.41,3.11,21.41,8.38s7.85,12.23,8.33,21.58C114.68,45.54,114.91,52.49,114.91,62.8ZM69,20.61H52.1c-1.66,0-3.8,0-6.42.24a29,29,0,0,0-6.9.72A19.67,19.67,0,0,0,34,22.77a23,23,0,0,0-6,3.84,17.11,17.11,0,0,0-3.8,6,20,20,0,0,0-1.19,4.79c-.24,1.92-.48,4.08-.72,7,0,2.64-.23,4.8-.23,6.48v24c0,1.67,0,3.83.23,6.47a29.45,29.45,0,0,0,.72,6.95A43.26,43.26,0,0,0,24.27,93a23.22,23.22,0,0,0,3.8,6,17.18,17.18,0,0,0,6,3.83,19.67,19.67,0,0,0,4.76,1.2c1.9.24,4,.48,6.9.72s4.76.24,6.42.24H75.9c1.66,0,3.8,0,6.42-.24a29,29,0,0,0,6.9-.72,19.67,19.67,0,0,0,4.76-1.2,23.26,23.26,0,0,0,6-3.83,17.24,17.24,0,0,0,3.8-6,19.74,19.74,0,0,0,1.19-4.79c.24-1.92.48-4.08.72-6.95,0-2.64.23-4.8.23-6.47v-24c0-1.68,0-3.84-.23-6.48a29.51,29.51,0,0,0-.72-7,20,20,0,0,0-1.19-4.79,23,23,0,0,0-3.8-6,17.06,17.06,0,0,0-6-3.84,19.67,19.67,0,0,0-4.76-1.2c-1.9-.24-4-.48-6.9-.72-2.62,0-4.76-.24-6.42-.24ZM82.32,44.1a25.59,25.59,0,0,1,7.61,18.7,26,26,0,0,1-7.61,18.7,25.23,25.23,0,0,1-18.56,7.67A26.09,26.09,0,0,1,37.59,62.8,26,26,0,0,1,45.2,44.1a25.24,25.24,0,0,1,18.56-7.67C71.14,36.43,77.32,38.83,82.32,44.1ZM75.9,74.79a16.56,16.56,0,0,0,5-12,17.08,17.08,0,0,0-5-12.22,17.13,17.13,0,0,0-24.27,0,16.7,16.7,0,0,0-5,12.22,15.82,15.82,0,0,0,5,12,17.15,17.15,0,0,0,24.27,0ZM95.41,30.92a5.85,5.85,0,0,1,0,8.63,5.74,5.74,0,0,1-8.57,0,5.85,5.85,0,0,1,0-8.63,5.74,5.74,0,0,1,8.57,0Z"/></g></g></svg>