<svg xmlns="http://www.w3.org/2000/svg" viewBox="0 0 128 128"><defs><style>.cls-1{fill:none;}.cls-2{fill:#f7f5ca;}</style></defs><g id="Layer_2" data-name="Layer 2"><g id="Layer_1-2" data-name="Layer 1"><rect class="cls-1" width="128" height="128"/><path class="cls-2" d="M112.6,35c-1.52-11.17-11.36-20-23-21.67-2-.29-9.43-1.34-26.7-1.34h-.13c-17.27,0-21,1.05-23,1.34C28.46,15,18.11,22.9,15.59,34.2a71,71,0,0,0-1.11,17.4c.32,8.11.38,16.22,1.13,24.3A111.69,111.69,0,0,0,18.3,91.84c2.39,9.68,12.05,17.74,21.53,21a58.25,58.25,0,0,0,31.49,1.64c1.15-.26,2.29-.57,3.41-.92,2.54-.79,5.52-1.69,7.7-3.26a.18.18,0,0,0,.07-.08.2.2,0,0,0,0-.11v-7.83a.36.36,0,0,0,0-.1.27.27,0,0,0-.07-.08.25.25,0,0,0-.09,0,.17.17,0,0,0-.1,0,88.49,88.49,0,0,1-20.44,2.36c-11.85,0-15-5.56-16-7.87a24.07,24.07,0,0,1-1.38-6.21.16.16,0,0,1,0-.1.15.15,0,0,1,.06-.09.18.18,0,0,1,.1,0,.17.17,0,0,1,.1,0A86.78,86.78,0,0,0,64.87,92.5c1.63,0,3.25,0,4.88,0a130.3,130.3,0,0,0,20.69-1.83c.17,0,.34-.06.48-.1,10.57-2,20.63-8.31,21.65-24.27,0-.63.14-6.58.14-7.24C112.71,56.81,113.43,43.31,112.6,35ZM96.33,74.83H85.22V47.9c0-5.67-2.39-8.56-7.25-8.56-5.34,0-8,3.42-8,10.18V64.26h-11V49.52c0-6.76-2.68-10.18-8-10.18-4.83,0-7.24,2.89-7.25,8.56V74.83H32.54V47.09q0-8.51,4.39-13.51a15.27,15.27,0,0,1,11.89-5c5.69,0,10,2.17,12.85,6.49l2.77,4.59L67.21,35q4.31-6.48,12.84-6.49a15.33,15.33,0,0,1,11.9,5q4.39,5,4.39,13.51Z"/></g></g></svg>