<svg xmlns="http://www.w3.org/2000/svg" viewBox="0 0 64 64"><defs><style>.cls-1{fill:#f7f5ca;}</style></defs><g id="Layer_2" data-name="Layer 2"><g id="Layer_1-2" data-name="Layer 1"><path class="cls-1" d="M31.94,0A31,31,0,0,1,54.69,9.31,30.81,30.81,0,0,1,64,32a30.45,30.45,0,0,1-9.15,22.51A31.54,31.54,0,0,1,31.94,64,30.94,30.94,0,0,1,9.43,54.57,30.77,30.77,0,0,1,0,32,31.28,31.28,0,0,1,9.43,9.32,30.63,30.63,0,0,1,31.94,0Zm.12,5.77A24.8,24.8,0,0,0,13.6,13.49,25.54,25.54,0,0,0,5.77,32a25,25,0,0,0,7.77,18.4,25.28,25.28,0,0,0,18.52,7.77,25.66,25.66,0,0,0,18.62-7.83A24.48,24.48,0,0,0,58.23,32a25,25,0,0,0-7.66-18.51A25,25,0,0,0,32.06,5.77ZM17.77,27.49a14.3,14.3,0,0,1,4.74-9.12,14,14,0,0,1,9.32-3.23c5,0,9,1.62,12,4.86s4.45,7.39,4.45,12.46a17.12,17.12,0,0,1-4.62,12.25,15.79,15.79,0,0,1-12,4.89,14.28,14.28,0,0,1-9.38-3.26,13.91,13.91,0,0,1-4.74-9.26H25.6q.28,5.84,7,5.83A6.35,6.35,0,0,0,38.06,40a13.22,13.22,0,0,0,2.06-7.77q0-5.08-1.89-7.74a6.23,6.23,0,0,0-5.43-2.66q-6.4,0-7.2,5.65h2.34L21.6,33.83l-6.34-6.35Z"/></g></g></svg>